<svg xmlns="http://www.w3.org/2000/svg" viewBox="0 0 128 128" width="32" height="32" role="img" aria-label="PlanSphere">
  <defs>
    <radialGradient id="s" cx="35%" cy="28%" r="80%"><stop offset="0" stop-color="#5FE0EC"/><stop offset="0.38" stop-color="#1594B6"/><stop offset="1" stop-color="#08294A"/></radialGradient>
    <clipPath id="g"><circle cx="64" cy="64" r="32"/></clipPath>
    <mask id="fh" maskUnits="userSpaceOnUse" x="60" y="-40" width="140" height="220"><rect x="64" y="-40" width="136" height="220" fill="#fff"/></mask>
  </defs>
  <g transform="rotate(-16 64 64)"><path d="M64 64C46 40 10 40 10 64C10 88 46 88 64 64C82 40 118 40 118 64C118 88 82 88 64 64Z" fill="none" stroke="#1B7CA0" stroke-width="8" stroke-linecap="round"/></g>
  <circle cx="64" cy="64" r="32" fill="url(#s)"/>
  <g clip-path="url(#g)"><g transform="rotate(-16 64 64)"><path d="M64 64C46 40 10 40 10 64C10 88 46 88 64 64C82 40 118 40 118 64C118 88 82 88 64 64Z" fill="none" stroke="#05203A" stroke-opacity="0.55" stroke-width="14" stroke-linecap="round" mask="url(#fh)"/></g></g>
  <g transform="rotate(-16 64 64)"><path d="M64 64C46 40 10 40 10 64C10 88 46 88 64 64C82 40 118 40 118 64C118 88 82 88 64 64Z" fill="none" stroke="#7FE9D8" stroke-width="8.5" stroke-linecap="round" mask="url(#fh)"/></g>
  <circle cx="64" cy="64" r="7" fill="#FF8A47"/>
</svg>
